<?xml version="1.0" standalone="no"?>
<!DOCTYPE svg PUBLIC "-//W3C//DTD SVG 20010904//EN"
 "http://www.w3.org/TR/2001/REC-SVG-20010904/DTD/svg10.dtd">
<svg version="1.0" xmlns="http://www.w3.org/2000/svg"
 width="700.000000pt" height="700.000000pt" viewBox="0 0 700.000000 700.000000"
 preserveAspectRatio="xMidYMid meet">
<g transform="translate(0.000000,700.000000) scale(0.100000,-0.100000)"
fill="#000000" stroke="none">
<path d="M2815 5673 c-127 -6 -271 -34 -427 -85 l-98 -32 0 -138 c0 -155 -9
-145 90 -97 61 29 186 76 228 84 158 33 314 39 415 16 171 -40 248 -140 261
-339 l5 -72 -212 -1 c-319 -1 -393 -8 -527 -50 -189 -59 -318 -188 -363 -360
-8 -31 -15 -99 -16 -151 -6 -300 170 -506 464 -543 55 -7 196 -7 217 0 7 2 29
6 50 9 59 9 149 46 209 87 50 34 97 81 158 159 l19 25 0 -100 c0 -55 0 -110 1
-122 1 -23 3 -23 140 -23 l138 0 -3 588 c-1 323 -5 602 -8 620 -3 17 -8 44
-10 60 -28 215 -202 385 -451 442 -59 14 -210 26 -280 23z m470 -984 c-19
-315 -159 -508 -398 -550 -148 -25 -271 5 -354 87 -59 59 -84 123 -84 222 -1
179 115 302 311 328 25 3 47 8 49 9 1 2 111 4 242 5 l240 1 -6 -102z"/>
<path d="M4448 5668 c-82 -8 -125 -21 -200 -60 -54 -29 -131 -100 -170 -158
-16 -24 -17 -22 -17 78 l-1 102 -27 1 c-29 1 -233 1 -245 0 -10 -1 -10 -4181
0 -4182 24 -4 249 -4 260 -1 9 3 12 80 12 341 l0 337 95 92 c52 51 99 92 104
92 6 0 527 -737 603 -854 8 -12 328 -15 328 -3 0 8 -43 73 -77 117 -10 13
-158 221 -195 273 -7 11 -31 44 -54 75 -22 32 -114 161 -204 287 -90 127 -174
244 -187 261 l-23 31 182 181 c101 100 245 242 321 316 75 74 137 137 137 139
0 3 -72 5 -160 5 l-160 0 -192 -190 c-106 -104 -266 -262 -355 -351 l-163
-162 0 860 0 859 28 -45 c66 -102 187 -180 317 -204 103 -19 290 7 377 51 170
87 289 253 347 486 42 164 47 470 12 629 -5 24 -12 55 -15 69 -13 69 -76 213
-125 284 -11 16 -45 55 -76 86 -116 119 -291 177 -477 158z m138 -247 c46 -12
120 -63 156 -106 50 -59 82 -137 108 -260 34 -165 29 -418 -13 -600 -34 -143
-130 -264 -238 -300 -102 -34 -243 -21 -320 30 -153 100 -220 296 -214 625 3
174 9 220 41 326 63 205 188 305 374 299 36 -1 83 -7 106 -14z"/>
<path d="M6140 5668 c-207 -21 -381 -142 -460 -320 l-19 -43 0 165 -1 165
-122 -2 c-68 -1 -131 -2 -140 -2 -17 -1 -18 -48 -18 -846 l0 -845 140 0 140 0
1 458 c0 251 3 480 5 507 22 239 144 419 324 479 108 36 254 40 364 12 55 -15
141 -55 188 -87 15 -11 29 -16 31 -12 3 5 5 68 5 141 l0 132 -57 29 c-117 59
-248 83 -381 69z"/>
<path d="M400 5628 c0 -9 25 -86 55 -168 24 -66 304 -851 368 -1035 20 -55 59
-165 87 -245 29 -80 59 -166 68 -193 l16 -47 179 2 179 3 23 60 c13 33 81 222
150 420 70 198 144 407 165 465 85 233 260 731 260 739 0 7 -278 7 -283 0 -4
-3 -69 -190 -138 -389 -38 -111 -64 -187 -149 -430 -106 -306 -190 -550 -197
-573 -5 -16 -8 -14 -19 10 -7 15 -19 48 -28 73 -8 25 -33 97 -55 160 -71 206
-196 569 -297 860 -53 157 -99 287 -101 289 -5 7 -283 6 -283 -1z"/>
<path d="M865 3166 c-74 -21 -123 -57 -192 -144 -18 -23 -18 -23 -18 45 l0 68
-122 1 c-86 1 -123 -2 -124 -10 -1 -6 -2 -386 -3 -843 -1 -548 2 -834 9 -836
5 -1 62 -3 125 -2 l115 0 1 545 c2 674 7 775 48 859 25 54 60 81 116 91 92 17
177 -31 199 -113 22 -82 24 -119 28 -742 2 -346 8 -632 13 -635 7 -4 221 -5
240 -1 3 1 5 252 6 559 1 695 7 789 57 864 40 60 137 88 212 62 62 -21 85 -57
111 -179 4 -16 9 -313 11 -660 2 -346 5 -634 7 -640 3 -8 213 -13 246 -6 8 2
4 1125 -4 1221 -17 203 -55 337 -113 406 -59 68 -153 104 -262 99 -140 -6
-233 -63 -293 -179 l-15 -28 -31 54 c-55 99 -138 148 -257 153 -38 1 -88 -3
-110 -9z"/>
<path d="M2740 3173 c-135 -18 -289 -54 -394 -93 l-56 -21 0 -135 c0 -74 3
-134 8 -134 4 0 39 15 77 34 88 42 170 71 260 90 112 25 125 26 218 27 291 0
414 -101 432 -357 l5 -70 -207 0 c-202 -1 -397 -9 -413 -19 -4 -3 -25 -7 -46
-11 -56 -9 -176 -57 -234 -94 -99 -64 -172 -168 -204 -293 -21 -79 -18 -253 4
-327 54 -179 193 -307 379 -350 83 -19 237 -19 332 0 161 33 270 108 373 255
13 17 14 8 14 -80 0 -55 1 -111 1 -125 l1 -25 137 0 138 1 0 544 c1 737 -8
814 -115 951 -88 115 -238 197 -410 225 -34 6 -268 11 -300 7z m537 -881 c15
-2 8 -157 -13 -257 -42 -208 -192 -364 -374 -392 -225 -34 -393 52 -434 222
-13 51 -8 155 10 209 38 113 174 199 338 212 39 4 72 7 73 8 3 2 384 0 400 -2z"/>
<path d="M6071 3163 c-157 -33 -300 -139 -373 -278 l-37 -70 -1 161 0 162
-140 0 -140 0 0 -844 c0 -668 3 -844 13 -845 49 -4 260 -3 263 2 1 3 4 217 5
476 1 500 6 568 51 683 47 119 128 210 232 259 82 39 142 50 261 49 127 -2
217 -28 310 -88 22 -15 45 -30 52 -34 9 -5 12 27 10 136 l-2 143 -50 27 c-125
67 -308 92 -454 61z"/>
</g>
</svg>
